<?xml version="1.0" encoding="UTF-8" standalone="no"?>
<!-- Created with Inkscape (http://www.inkscape.org/) -->

<svg
   xmlns:dc="http://purl.org/dc/elements/1.1/"
   xmlns:cc="http://creativecommons.org/ns#"
   xmlns:rdf="http://www.w3.org/1999/02/22-rdf-syntax-ns#"
   xmlns:svg="http://www.w3.org/2000/svg"
   xmlns="http://www.w3.org/2000/svg"
   xmlns:sodipodi="http://sodipodi.sourceforge.net/DTD/sodipodi-0.dtd"
   xmlns:inkscape="http://www.inkscape.org/namespaces/inkscape"
   width="300"
   height="104.34835"
   id="svg2"
   version="1.1"
   inkscape:version="0.47 r22583"
   sodipodi:docname="Iteru.svg">
  <defs
     id="defs4">
    <inkscape:perspective
       sodipodi:type="inkscape:persp3d"
       inkscape:vp_x="0 : 526.18109 : 1"
       inkscape:vp_y="0 : 1000 : 0"
       inkscape:vp_z="744.09448 : 526.18109 : 1"
       inkscape:persp3d-origin="372.04724 : 350.78739 : 1"
       id="perspective10" />
    <inkscape:perspective
       id="perspective2824"
       inkscape:persp3d-origin="0.5 : 0.33333333 : 1"
       inkscape:vp_z="1 : 0.5 : 1"
       inkscape:vp_y="0 : 1000 : 0"
       inkscape:vp_x="0 : 0.5 : 1"
       sodipodi:type="inkscape:persp3d" />
    <inkscape:perspective
       id="perspective2838"
       inkscape:persp3d-origin="0.5 : 0.33333333 : 1"
       inkscape:vp_z="1 : 0.5 : 1"
       inkscape:vp_y="0 : 1000 : 0"
       inkscape:vp_x="0 : 0.5 : 1"
       sodipodi:type="inkscape:persp3d" />
    <inkscape:perspective
       id="perspective2860"
       inkscape:persp3d-origin="0.5 : 0.33333333 : 1"
       inkscape:vp_z="1 : 0.5 : 1"
       inkscape:vp_y="0 : 1000 : 0"
       inkscape:vp_x="0 : 0.5 : 1"
       sodipodi:type="inkscape:persp3d" />
    <inkscape:perspective
       id="perspective2905"
       inkscape:persp3d-origin="0.5 : 0.33333333 : 1"
       inkscape:vp_z="1 : 0.5 : 1"
       inkscape:vp_y="0 : 1000 : 0"
       inkscape:vp_x="0 : 0.5 : 1"
       sodipodi:type="inkscape:persp3d" />
    <inkscape:perspective
       id="perspective2935"
       inkscape:persp3d-origin="0.5 : 0.33333333 : 1"
       inkscape:vp_z="1 : 0.5 : 1"
       inkscape:vp_y="0 : 1000 : 0"
       inkscape:vp_x="0 : 0.5 : 1"
       sodipodi:type="inkscape:persp3d" />
    <inkscape:perspective
       id="perspective3734"
       inkscape:persp3d-origin="0.5 : 0.33333333 : 1"
       inkscape:vp_z="1 : 0.5 : 1"
       inkscape:vp_y="0 : 1000 : 0"
       inkscape:vp_x="0 : 0.5 : 1"
       sodipodi:type="inkscape:persp3d" />
    <inkscape:perspective
       id="perspective3734-4"
       inkscape:persp3d-origin="0.5 : 0.33333333 : 1"
       inkscape:vp_z="1 : 0.5 : 1"
       inkscape:vp_y="0 : 1000 : 0"
       inkscape:vp_x="0 : 0.5 : 1"
       sodipodi:type="inkscape:persp3d" />
    <inkscape:perspective
       id="perspective3734-9"
       inkscape:persp3d-origin="0.5 : 0.33333333 : 1"
       inkscape:vp_z="1 : 0.5 : 1"
       inkscape:vp_y="0 : 1000 : 0"
       inkscape:vp_x="0 : 0.5 : 1"
       sodipodi:type="inkscape:persp3d" />
    <inkscape:perspective
       id="perspective3774"
       inkscape:persp3d-origin="0.5 : 0.33333333 : 1"
       inkscape:vp_z="1 : 0.5 : 1"
       inkscape:vp_y="0 : 1000 : 0"
       inkscape:vp_x="0 : 0.5 : 1"
       sodipodi:type="inkscape:persp3d" />
    <inkscape:perspective
       id="perspective3798"
       inkscape:persp3d-origin="0.5 : 0.33333333 : 1"
       inkscape:vp_z="1 : 0.5 : 1"
       inkscape:vp_y="0 : 1000 : 0"
       inkscape:vp_x="0 : 0.5 : 1"
       sodipodi:type="inkscape:persp3d" />
    <inkscape:perspective
       id="perspective3820"
       inkscape:persp3d-origin="0.5 : 0.33333333 : 1"
       inkscape:vp_z="1 : 0.5 : 1"
       inkscape:vp_y="0 : 1000 : 0"
       inkscape:vp_x="0 : 0.5 : 1"
       sodipodi:type="inkscape:persp3d" />
    <inkscape:perspective
       id="perspective3842"
       inkscape:persp3d-origin="0.5 : 0.33333333 : 1"
       inkscape:vp_z="1 : 0.5 : 1"
       inkscape:vp_y="0 : 1000 : 0"
       inkscape:vp_x="0 : 0.5 : 1"
       sodipodi:type="inkscape:persp3d" />
    <inkscape:perspective
       id="perspective3866"
       inkscape:persp3d-origin="0.5 : 0.33333333 : 1"
       inkscape:vp_z="1 : 0.5 : 1"
       inkscape:vp_y="0 : 1000 : 0"
       inkscape:vp_x="0 : 0.5 : 1"
       sodipodi:type="inkscape:persp3d" />
    <inkscape:perspective
       id="perspective3888"
       inkscape:persp3d-origin="0.5 : 0.33333333 : 1"
       inkscape:vp_z="1 : 0.5 : 1"
       inkscape:vp_y="0 : 1000 : 0"
       inkscape:vp_x="0 : 0.5 : 1"
       sodipodi:type="inkscape:persp3d" />
    <inkscape:perspective
       id="perspective3924"
       inkscape:persp3d-origin="0.5 : 0.33333333 : 1"
       inkscape:vp_z="1 : 0.5 : 1"
       inkscape:vp_y="0 : 1000 : 0"
       inkscape:vp_x="0 : 0.5 : 1"
       sodipodi:type="inkscape:persp3d" />
    <inkscape:perspective
       id="perspective3946"
       inkscape:persp3d-origin="0.5 : 0.33333333 : 1"
       inkscape:vp_z="1 : 0.5 : 1"
       inkscape:vp_y="0 : 1000 : 0"
       inkscape:vp_x="0 : 0.5 : 1"
       sodipodi:type="inkscape:persp3d" />
    <inkscape:perspective
       id="perspective3971"
       inkscape:persp3d-origin="0.5 : 0.33333333 : 1"
       inkscape:vp_z="1 : 0.5 : 1"
       inkscape:vp_y="0 : 1000 : 0"
       inkscape:vp_x="0 : 0.5 : 1"
       sodipodi:type="inkscape:persp3d" />
    <inkscape:perspective
       id="perspective3994"
       inkscape:persp3d-origin="0.5 : 0.33333333 : 1"
       inkscape:vp_z="1 : 0.5 : 1"
       inkscape:vp_y="0 : 1000 : 0"
       inkscape:vp_x="0 : 0.5 : 1"
       sodipodi:type="inkscape:persp3d" />
    <inkscape:perspective
       id="perspective4016"
       inkscape:persp3d-origin="0.5 : 0.33333333 : 1"
       inkscape:vp_z="1 : 0.5 : 1"
       inkscape:vp_y="0 : 1000 : 0"
       inkscape:vp_x="0 : 0.5 : 1"
       sodipodi:type="inkscape:persp3d" />
    <inkscape:perspective
       id="perspective4016-2"
       inkscape:persp3d-origin="0.5 : 0.33333333 : 1"
       inkscape:vp_z="1 : 0.5 : 1"
       inkscape:vp_y="0 : 1000 : 0"
       inkscape:vp_x="0 : 0.5 : 1"
       sodipodi:type="inkscape:persp3d" />
    <inkscape:perspective
       id="perspective4057"
       inkscape:persp3d-origin="0.5 : 0.33333333 : 1"
       inkscape:vp_z="1 : 0.5 : 1"
       inkscape:vp_y="0 : 1000 : 0"
       inkscape:vp_x="0 : 0.5 : 1"
       sodipodi:type="inkscape:persp3d" />
    <inkscape:perspective
       id="perspective3628"
       inkscape:persp3d-origin="0.5 : 0.33333333 : 1"
       inkscape:vp_z="1 : 0.5 : 1"
       inkscape:vp_y="0 : 1000 : 0"
       inkscape:vp_x="0 : 0.5 : 1"
       sodipodi:type="inkscape:persp3d" />
    <inkscape:perspective
       id="perspective3656"
       inkscape:persp3d-origin="0.5 : 0.33333333 : 1"
       inkscape:vp_z="1 : 0.5 : 1"
       inkscape:vp_y="0 : 1000 : 0"
       inkscape:vp_x="0 : 0.5 : 1"
       sodipodi:type="inkscape:persp3d" />
    <inkscape:perspective
       id="perspective3681"
       inkscape:persp3d-origin="0.5 : 0.33333333 : 1"
       inkscape:vp_z="1 : 0.5 : 1"
       inkscape:vp_y="0 : 1000 : 0"
       inkscape:vp_x="0 : 0.5 : 1"
       sodipodi:type="inkscape:persp3d" />
    <inkscape:perspective
       id="perspective4203"
       inkscape:persp3d-origin="0.5 : 0.33333333 : 1"
       inkscape:vp_z="1 : 0.5 : 1"
       inkscape:vp_y="0 : 1000 : 0"
       inkscape:vp_x="0 : 0.5 : 1"
       sodipodi:type="inkscape:persp3d" />
  </defs>
  <sodipodi:namedview
     id="base"
     pagecolor="#ffffff"
     bordercolor="#666666"
     borderopacity="1.0"
     inkscape:pageopacity="0.0"
     inkscape:pageshadow="2"
     inkscape:zoom="2.9886561"
     inkscape:cx="150.31592"
     inkscape:cy="50.918376"
     inkscape:document-units="px"
     inkscape:current-layer="layer2"
     showgrid="false"
     inkscape:window-width="1024"
     inkscape:window-height="712"
     inkscape:window-x="-4"
     inkscape:window-y="-4"
     inkscape:window-maximized="1"
     inkscape:snap-bbox="true"
     inkscape:bbox-paths="true"
     inkscape:bbox-nodes="true"
     inkscape:snap-bbox-edge-midpoints="true"
     inkscape:snap-bbox-midpoints="true"
     inkscape:object-paths="true"
     inkscape:snap-intersection-paths="true"
     inkscape:object-nodes="true"
     inkscape:snap-smooth-nodes="true"
     inkscape:snap-midpoints="true"
     inkscape:snap-global="false"
     showguides="true"
     inkscape:guide-bbox="true"
     borderlayer="true" />
  <metadata
     id="metadata7">
    <rdf:RDF>
      <cc:Work
         rdf:about="">
        <dc:format>image/svg+xml</dc:format>
        <dc:type
           rdf:resource="http://purl.org/dc/dcmitype/StillImage" />
        <dc:title />
      </cc:Work>
    </rdf:RDF>
  </metadata>
  <g
     inkscape:label="Capa 1"
     inkscape:groupmode="layer"
     id="layer1"
     transform="translate(2.6763459,-950.6761)" />
  <g
     inkscape:groupmode="layer"
     id="layer2"
     inkscape:label="2"
     transform="translate(2.6763459,-950.6761)">
    <g
       id="g2870"
       transform="matrix(1.7482141,0,0,1.7482141,2.0024796,-789.38411)">
      <rect
         y="995.33588"
         x="-2.6763458"
         height="59.688541"
         width="171.6037"
         id="rect4304"
         style="fill:#ffffff;fill-opacity:1;fill-rule:evenodd;stroke:none" />
      <path
         sodipodi:nodetypes="cccccscccccc"
         id="path2845-2"
         d="M 4.22077,998.58058 0,1030.1652 l 0,3.9742 c 9.23711,6.6093 9.29355,11.7584 9.0398,18.2228 l 3.7036,-0.3781 c -0.16489,-15.1996 0.14803,-32.2059 -0.7312,-44.7034 -0.19039,-2.7062 -4.89077,-7.0719 -7.79143,-8.70012 z m 1.9356,3.87612 c 1.53852,1.3028 2.96181,2.94 3.23875,4.3332 l -0.33895,32.1536 c -3.93894,-4.4378 -4.17585,-4.9715 -6.93892,-7.1675 l 4.03912,-29.3193 z"
         style="fill:#000000;fill-opacity:1;fill-rule:evenodd;stroke:none" />
      <path
         sodipodi:nodetypes="cccccccccc"
         id="path2850-2"
         d="m 45.03153,998.06478 c -7.34687,0 -13.31258,5.93452 -13.31258,13.28142 l 0,1.2188 26.62517,0 0,-1.2188 c 0,-7.3469 -5.96572,-13.28142 -13.31259,-13.28142 z m 0,2.43752 c 5.59164,0 10.18393,4.1954 10.78132,9.6252 l -21.59388,0 c 0.60106,-5.4298 5.22092,-9.6252 10.81256,-9.6252 z"
         style="fill:#000000;fill-opacity:1;fill-rule:evenodd;stroke:none" />
      <path
         id="path2921-1"
         d="m 45.31257,1038.6709 c -9.45129,-0.097 -19.04218,1.8043 -24.83166,6.019 11.57896,8.4296 38.38828,7.6492 48.78873,0 -5.20022,-3.8245 -14.50579,-5.9215 -23.95707,-6.019 z"
         style="fill:none;stroke:#000000;stroke-width:2.42001438;stroke-miterlimit:4;stroke-dasharray:none" />
      <path
         id="path3856-6"
         d="m 123.50078,1045.2526 -0.84375,0.7813 -3.06253,2.8438 0,2.8437 a 1.2101287,1.2101277 0 0 0 0.84375,-0.3125 l 3.06253,-2.8438 3.06252,2.8438 a 1.2101287,1.2101277 0 0 0 1.65626,0 l 3.06251,-2.875 3.06253,2.875 a 1.2101287,1.2101277 0 0 0 1.65626,0 l 3.06252,-2.8438 3.06251,2.8438 a 1.2101287,1.2101277 0 0 0 1.65626,0 l 3.06253,-2.875 3.06252,2.875 a 1.2101287,1.2101277 0 0 0 1.62501,0 l 3.06251,-2.8438 3.06252,2.8438 0.0312,0 a 1.2101287,1.2101277 0 0 0 1.62502,0 l 3.06252,-2.875 3.06251,2.875 a 1.2101287,1.2101277 0 0 0 0.81251,0.3125 l 0,-2.8437 -3.06252,-2.8438 -0.8125,-0.7813 -0.81251,0.7813 -3.06253,2.8438 -3.06251,-2.8438 -0.84376,-0.7813 -0.8125,0.7813 -3.06252,2.8438 -3.06252,-2.8438 -0.8125,-0.7813 -0.81251,0.7813 -3.06252,2.8438 -3.06252,-2.8438 -0.0312,0 -0.8125,-0.7813 -0.84376,0.7813 -3.06251,2.8438 -3.06253,-2.8438 -0.81251,-0.7813 -0.8125,0.7813 -3.06252,2.8438 -3.06251,-2.8438 -0.0312,0 -0.81251,-0.7813 z"
         style="font-size:medium;font-style:normal;font-variant:normal;font-weight:normal;font-stretch:normal;text-indent:0;text-align:start;text-decoration:none;line-height:normal;letter-spacing:normal;word-spacing:normal;text-transform:none;direction:ltr;block-progression:tb;writing-mode:lr-tb;text-anchor:start;color:#000000;fill:#000000;fill-opacity:1;stroke:none;stroke-width:2.42000008;marker:none;visibility:visible;display:inline;overflow:visible;enable-background:accumulate;font-family:Bitstream Vera Sans;-inkscape-font-specification:Bitstream Vera Sans" />
      <path
         sodipodi:nodetypes="ccccccccccc"
         id="path4075-8"
         d="m 94.61477,1032.0058 c 0.50302,0.4665 -3.6686,16.1101 -5.42671,16.1216 -6.2578,0.1327 -10.08218,-0.7649 -12.15632,4.125 l 28.34392,0 c -1.34909,-1.5049 -2.68932,-2.493 -4.34377,-3.125 0.70788,-7.4228 2.34713,-10.0849 3.71877,-14.0939 l -7.12549,-0.3748 c 2.58728,3.2196 4.10498,12.6103 -2.12457,13.5004 -0.78703,-0.041 -1.46385,-0.088 -2.38254,-0.094 1.3337,-5.0902 2.9133,-8.5765 4.50711,-13.4064 l -3.0104,-2.6529 z"
         style="fill:#000000;fill-opacity:1;fill-rule:evenodd;stroke:none" />
      <path
         sodipodi:nodetypes="ccccccc"
         id="path2841-5"
         d="m 93.00563,1030.1004 c 3.42239,4.7627 7.6386,5.9953 17.33077,3.9244 4.7909,-1.241 2.1826,-3.8349 0.95084,-5.5492 L 95.83619,1009.085 c -4.22698,-9.0465 -5.66443,-9.96311 -15.82663,-5.2363 2.21118,1.9083 4.20846,1.7286 7.01924,11.8481 0.39061,1.2961 3.39396,9.0466 5.97683,14.4036 z"
         style="fill:none;stroke:#000000;stroke-width:2.42001438;stroke-linejoin:round;stroke-miterlimit:4;stroke-dasharray:none" />
      <path
         sodipodi:nodetypes="ccc"
         id="path3617-7"
         d="m 102.15391,1017.5712 c -4.99517,-0.253 -4.96405,1.5586 -4.98394,5.9954 -9.2655,-4.5701 -7.01569,-8.8001 -4.06854,-9.788"
         style="fill:none;stroke:#000000;stroke-width:2.20001316;stroke-linecap:round;stroke-linejoin:miter;stroke-miterlimit:4;stroke-dasharray:none" />
      <path
         id="path3856-1-6"
         d="m 123.50078,1021.6254 -0.84375,0.7812 -3.06253,2.8438 0,2.8438 a 1.2101287,1.2101277 0 0 0 0.84375,-0.3126 l 3.06253,-2.8438 3.06252,2.8438 a 1.2101287,1.2101277 0 0 0 1.65626,0 l 3.06251,-2.875 3.06253,2.875 a 1.2101287,1.2101277 0 0 0 1.65626,0 l 3.06252,-2.8438 3.06251,2.8438 a 1.2101287,1.2101277 0 0 0 1.65626,0 l 3.06253,-2.875 3.06252,2.875 a 1.2101287,1.2101277 0 0 0 1.62501,0 l 3.06251,-2.8438 3.06252,2.8438 0.0312,0 a 1.2101287,1.2101277 0 0 0 1.62502,0 l 3.06252,-2.875 3.06251,2.875 a 1.2101287,1.2101277 0 0 0 0.81251,0.3126 l 0,-2.8438 -3.06252,-2.8438 -0.8125,-0.7812 -0.81251,0.7812 -3.06253,2.8438 -3.06251,-2.8438 -0.84376,-0.7812 -0.8125,0.7812 -3.06252,2.8438 -3.06252,-2.8438 -0.8125,-0.7812 -0.81251,0.7812 -3.06252,2.8438 -3.06252,-2.8438 -0.0312,0 -0.8125,-0.7812 -0.84376,0.7812 -3.06251,2.8438 -3.06253,-2.8438 -0.81251,-0.7812 -0.8125,0.7812 -3.06252,2.8438 -3.06251,-2.8438 -0.0312,0 -0.81251,-0.7812 z"
         style="font-size:medium;font-style:normal;font-variant:normal;font-weight:normal;font-stretch:normal;text-indent:0;text-align:start;text-decoration:none;line-height:normal;letter-spacing:normal;word-spacing:normal;text-transform:none;direction:ltr;block-progression:tb;writing-mode:lr-tb;text-anchor:start;color:#000000;fill:#000000;fill-opacity:1;stroke:none;stroke-width:2.42000008;marker:none;visibility:visible;display:inline;overflow:visible;enable-background:accumulate;font-family:Bitstream Vera Sans;-inkscape-font-specification:Bitstream Vera Sans" />
      <path
         id="path3856-1-7-1"
         d="m 123.50078,997.99818 -0.84375,0.7812 -3.06253,2.84382 0,2.8437 a 1.2101287,1.2101277 0 0 0 0.84375,-0.3125 l 3.06253,-2.8438 3.06252,2.8438 a 1.2101287,1.2101277 0 0 0 1.65626,0 l 3.06251,-2.875 3.06253,2.875 a 1.2101287,1.2101277 0 0 0 1.65626,0 l 3.06252,-2.8438 3.06251,2.8438 a 1.2101287,1.2101277 0 0 0 1.65626,0 l 3.06253,-2.875 3.06252,2.875 a 1.2101287,1.2101277 0 0 0 1.62501,0 l 3.06251,-2.8438 3.06252,2.8438 0.0312,0 a 1.2101287,1.2101277 0 0 0 1.62502,0 l 3.06252,-2.875 3.06251,2.875 a 1.2101287,1.2101277 0 0 0 0.81251,0.3125 l 0,-2.8437 -3.06252,-2.84382 -0.8125,-0.7812 -0.81251,0.7812 -3.06253,2.84382 -3.06251,-2.84382 -0.84376,-0.7812 -0.8125,0.7812 -3.06252,2.84382 -3.06252,-2.84382 -0.8125,-0.7812 -0.81251,0.7812 -3.06252,2.84382 -3.06252,-2.84382 -0.0312,0 -0.8125,-0.7812 -0.84376,0.7812 -3.06251,2.84382 -3.06253,-2.84382 -0.81251,-0.7812 -0.8125,0.7812 -3.06252,2.84382 -3.06251,-2.84382 -0.0312,0 -0.81251,-0.7812 z"
         style="font-size:medium;font-style:normal;font-variant:normal;font-weight:normal;font-stretch:normal;text-indent:0;text-align:start;text-decoration:none;line-height:normal;letter-spacing:normal;word-spacing:normal;text-transform:none;direction:ltr;block-progression:tb;writing-mode:lr-tb;text-anchor:start;color:#000000;fill:#000000;fill-opacity:1;stroke:none;stroke-width:2.42000008;marker:none;visibility:visible;display:inline;overflow:visible;enable-background:accumulate;font-family:Bitstream Vera Sans;-inkscape-font-specification:Bitstream Vera Sans" />
      <path
         sodipodi:nodetypes="csccsc"
         id="path3704-8"
         d="m 87.39057,1003.6111 c -0.49705,0 -0.89125,0.3629 -0.89125,0.86 0,0.1713 0.0462,0.5064 0.125,0.6487 0.64975,0.294 1.37416,0.14 2.09624,0 0.15479,-0.1432 0.28125,-0.2919 0.28125,-0.4687 0,-0.4971 -1.11418,-1.04 -1.61124,-1.04 z"
         style="fill:#000000;fill-opacity:1;fill-rule:evenodd;stroke:none" />
    </g>
  </g>
</svg>
